<svg width="0" height="0" class="hidden">
  <symbol id="star" version="1.1" xmlns="http://www.w3.org/2000/svg" viewBox="0 0 20 20">
    <title>star</title>
    <g>
        <path d="M10 1.3l2.388 6.722h6.412l-5.232 3.948 1.871 6.928-5.439-4.154-5.438 4.154 1.87-6.928-5.233-3.948h6.412l2.389-6.722z"></path>
    </g>
  </symbol>
  <symbol xmlns="http://www.w3.org/2000/svg" viewBox="0 0 24 24" id="message">
    <g>
        <path d="M4 1C2.34315 1 1 2.34315 1 4V15C1 16.6569 2.34315 18 4 18H6V22C6 22.388 6.22446 22.741 6.57584 22.9056C6.92723 23.0702 7.3421 23.0166 7.64018 22.7682L13.362 18H20C21.6569 18 23 16.6569 23 15V4C23 2.34315 21.6569 1 20 1H4Z"></path>
    </g>
  </symbol>
  <symbol id="map" version="1.1" xmlns="http://www.w3.org/2000/svg" viewBox="0 0 20 20">
    <title>map</title>
    <path d="M19.447 3.718l-6-3c-0.281-0.141-0.613-0.141-0.895 0l-5.63 2.815-5.606-1.869c-0.306-0.102-0.64-0.051-0.901 0.138s-0.415 0.49-0.415 0.811v13.001c0 0.379 0.214 0.725 0.553 0.894l6 3c0.141 0.070 0.294 0.106 0.447 0.106s0.307-0.035 0.447-0.106l5.63-2.814 5.606 1.869c0.305 0.1 0.64 0.049 0.901-0.139s0.415-0.49 0.415-0.81v-13.002c0.001-0.379-0.213-0.725-0.552-0.894zM8 5.231l4-2v11.763l-4 2v-11.763zM2 4l4 1.333v11.661l-4-2v-10.994zM18 16.227l-4-1.334v-11.662l4 2v10.996z"></path>
  </symbol>
  <symbol version="1.1" id="magnifying-glass" xmlns="http://www.w3.org/2000/svg" xmlns:xlink="http://www.w3.org/1999/xlink" xml:space="preserve" viewBox="0 0 512 512">
    <g>
      <path d="M376.324,312.508c49.638-78.774,40.238-184.326-28.306-252.871c-79.507-79.515-208.872-79.515-288.388,0
		c-79.507,79.516-79.507,208.873,0,288.379c68.536,68.544,174.115,77.935,252.88,28.306l135.668,135.676L512,448.186
		L376.324,312.508z M296.543,296.542c-51.121,51.139-134.308,51.139-185.439,0c-51.121-51.121-51.112-134.299,0.009-185.43
		c51.122-51.121,134.309-51.13,185.43-0.008C347.665,162.243,347.665,245.421,296.543,296.542z"></path>
    </g>
  </symbol>
  <symbol version="1.1" id="location" xmlns="http://www.w3.org/2000/svg" xmlns:xlink="http://www.w3.org/1999/xlink" x="0px" y="0px" enable-background="new 0 0 24 24" xml:space="preserve" viewBox="0 0 24 24">
    <g id="Location-Pin-Filled">
      <path d="M12,1c-4.97,0-9,4.03-9,9c0,6.75,9,13,9,13s9-6.25,9-13C21,5.03,16.97,1,12,1z M12,13c-1.66,0-3-1.34-3-3s1.34-3,3-3
		s3,1.34,3,3S13.66,13,12,13z"></path>
    </g>
  </symbol>
  <symbol version="1.1" xmlns="http://www.w3.org/2000/svg" viewBox="0 0 24 24" id="house">
    <g>
        <path d="M11.3861 1.21065C11.7472 0.929784 12.2528 0.929784 12.6139 1.21065L21.6139 8.21065C21.8575 8.4001 22 8.69141 22 9V20.5C22 21.3284 21.3284 22 20.5 22H15V14C15 13.4477 14.5523 13 14 13H10C9.44772 13 9 13.4477 9 14V22H3.5C2.67157 22 2 21.3284 2 20.5V9C2 8.69141 2.14247 8.4001 2.38606 8.21065L11.3861 1.21065Z"></path>
    </g>
  </symbol>
  <symbol version="1.1" id="car" xmlns="http://www.w3.org/2000/svg" xmlns:xlink="http://www.w3.org/1999/xlink" xml:space="preserve" viewBox="0 0 512 512">
    <g>
      <path d="M67.501,458.65c0,10.304,8.358,18.663,18.671,18.663h51.555c10.322,0,18.68-8.359,18.68-18.663v-38.402H67.501
		V458.65z"></path>
      <path d="M355.584,458.65c0,10.304,8.359,18.663,18.688,18.663h51.555c10.305,0,18.664-8.359,18.664-18.663v-38.402
		h-88.907V458.65z"></path>
      <path d="M451.831,216.465l-26.209-95c-14.171-51.268-60.809-86.779-113.982-86.779H200.352
		c-53.182,0-99.81,35.512-113.966,86.779l-26.217,95C24.985,229.939,0,264.022,0,303.943c0,51.728,41.932,93.668,93.66,93.668
		h324.655c51.728,0,93.685-41.941,93.685-93.668C512,264.022,487.006,229.956,451.831,216.465z M93.66,344.241
		c-22.267,0-40.306-18.047-40.306-40.298c0-22.276,18.039-40.323,40.306-40.323c22.268,0,40.323,18.048,40.323,40.323
		C133.983,326.194,115.928,344.241,93.66,344.241z M368.582,172.668c-1.535,2.011-3.916,3.202-6.446,3.202H149.863
		c-2.538,0-4.919-1.191-6.446-3.202c-1.535-2.02-2.053-4.631-1.363-7.078l9.54-34.567c7.554-27.4,32.679-46.539,61.096-46.539
		h86.616c28.409,0,53.534,19.14,61.096,46.522l9.533,34.584C370.626,168.038,370.125,170.649,368.582,172.668z M418.315,344.241
		c-22.251,0-40.315-18.047-40.315-40.298c0-22.276,18.064-40.323,40.315-40.323c22.276,0,40.323,18.048,40.323,40.323
		C458.638,326.194,440.59,344.241,418.315,344.241z"></path>
    </g>
  </symbol>
  <symbol version="1.1" xmlns="http://www.w3.org/2000/svg" viewBox="0 0 24 24" id="bookmark">
    <g>
        <path d="M5.5 1C4.39543 1 3.5 1.89543 3.5 3V22C3.5 22.3612 3.6948 22.6944 4.00961 22.8715C4.32441 23.0486 4.71028 23.0422 5.01903 22.8548L12 18.6157L18.981 22.8548C19.2897 23.0422 19.6756 23.0486 19.9904 22.8715C20.3052 22.6944 20.5 22.3612 20.5 22V3C20.5 1.89543 19.6046 1 18.5 1H5.5Z"></path>
    </g>
  </symbol>
  <symbol version="1.1" xmlns="http://www.w3.org/2000/svg" viewBox="0 -32 576 576" id="plane">
    <g>
        <path d="M480 192H365.71L260.61 8.06A16.014 16.014 0 0 0 246.71 0h-65.5c-10.63 0-18.3 10.17-15.38 20.39L214.86 192H112l-43.2-57.6c-3.02-4.03-7.77-6.4-12.8-6.4H16.01C5.6 128-2.04 137.78.49 147.88L32 256 .49 364.12C-2.04 374.22 5.6 384 16.01 384H56c5.04 0 9.78-2.37 12.8-6.4L112 320h102.86l-49.03 171.6c-2.92 10.22 4.75 20.4 15.38 20.4h65.5c5.74 0 11.04-3.08 13.89-8.06L365.71 320H480c35.35 0 96-28.65 96-64s-60.65-64-96-64z"></path>
    </g>
  </symbol>
</svg>